<svg viewBox="0 0 14 8" width="20px" height="20px" xmlns="http://www.w3.org/2000/svg" xmlns:xlink="http://www.w3.org/1999/xlink">
    <path fill-rule="evenodd" style="fill: #ffffff;" d="M24,76 L25,76 L25,78 L24,78 L24,79 C24,80.1045695 23.1045695,81 22,81 L13,81 C11.8954305,81 11,80.1045695 11,79 L11,75 C11,73.8954305 11.8954305,73 13,73 L22,73 C23.1045695,73 24,73.8954305 24,75 L24,76 Z M13,74 C12.4477153,74 12,74.4477153 12,75 L12,79 C12,79.5522847 12.4477153,80 13,80 L22,80 C22.5522847,80 23,79.5522847 23,79 L23,75 C23,74.4477153 22.5522847,74 22,74 L13,74 Z M13,75 L19,75 L19,79 L13,79 L13,75 Z" transform="translate(-11 -73)"></path>
</svg>

