<svg id="feat_camera" viewBox="0 0 14 12" xmlns="http://www.w3.org/2000/svg" xmlns:xlink="http://www.w3.org/1999/xlink" width="20px" height="20px">
    <path fill-rule="evenodd" style="fill: #ffffff;" d="M17,101 L22,101 C23.6568542,101 25,102.343146 25,104 L25,108 C25,109.656854 23.6568542,111 22,111 L14,111 C12.3431458,111 11,109.656854 11,108 L11,104 C11,102.343146 12.3431458,101 14,101 C14,100.447715 14.4477153,100 15,100 L16,100 C16.5522847,100 17,100.447715 17,101 Z M16,102 C14.8954305,102 14,102.895431 14,104 L14,108 C14,109.104569 14.8954305,110 16,110 L22,110 C23.1045695,110 24,109.104569 24,108 L24,104 C24,102.895431 23.1045695,102 22,102 L16,102 Z M19,109 C17.3431458,109 16,107.656854 16,106 C16,104.343146 17.3431458,103 19,103 C20.6568542,103 22,104.343146 22,106 C22,107.656854 20.6568542,109 19,109 Z M19,108 C20.1045695,108 21,107.104569 21,106 C21,104.895431 20.1045695,104 19,104 C17.8954305,104 17,104.895431 17,106 C17,107.104569 17.8954305,108 19,108 Z" transform="translate(-11 -100)"></path>
</svg>