<svg width="20px" height="20px" viewBox="0 0 12 12" xmlns="http://www.w3.org/2000/svg" xmlns:xlink="http://www.w3.org/1999/xlink">
    <path fill-rule="evenodd" style="fill: #ffffff;" d="M14,187 L18,187 C19.1045695,187 20,187.895431 20,189 L20,197 C20,198.104569 19.1045695,199 18,199 L14,199 C12.8954305,199 12,198.104569 12,197 L12,189 C12,187.895431 12.8954305,187 14,187 Z M13,189 L13,197 L19,197 L19,189 L13,189 Z M23,187 C23.5522847,187 24,187.447715 24,188 L24,198 C24,198.552285 23.5522847,199 23,199 C22.4477153,199 22,198.552285 22,198 L22,188 C22,187.447715 22.4477153,187 23,187 Z" transform="translate(-12 -187)">
    </path>
</svg>